<svg width="578" height="632" viewBox="0 0 578 632" fill="none" xmlns="http://www.w3.org/2000/svg">
<g opacity="0.03">
<path d="M288.857 4.94281C200.59 -0.00767231 78.5196 70.5367 28.5179 106.428C-33.9635 404.446 176.043 563.935 288.857 606.426C542.75 527.219 573.99 240.091 557.874 106.428C504.98 74.6621 377.124 9.89329 288.857 4.94281Z" fill="#1A1A25"/>
<path fill-rule="evenodd" clip-rule="evenodd" d="M62.4714 269.735C128.591 225.616 207.457 201.166 287.947 197.379L288.863 197.335L289.779 197.379C370.27 201.166 449.135 225.616 515.258 269.735C521.093 229.975 523.466 185.272 521.485 134.984C464.133 92.0546 384.423 58.3662 288.863 53.8695C193.304 58.3662 113.593 92.0546 56.2443 134.984C54.2601 185.272 56.6329 229.975 62.4714 269.735Z" fill="white"/>
<path fill-rule="evenodd" clip-rule="evenodd" d="M288.843 631.186C378.154 596.569 442.711 557.158 496.806 477.801C572.945 366.107 581.608 237.143 576.509 107.948C486.412 40.5058 405.036 5.46634 288.843 -0.00060144V35.9127C383.568 40.2998 465.247 70.1619 539.812 125.971C544.313 239.989 532.25 360.275 465.524 458.166C421.018 523.453 363.46 563.582 288.843 592.5V631.186Z" fill="white"/>
<path fill-rule="evenodd" clip-rule="evenodd" d="M270.132 216.552V565.377C276.433 568.183 282.674 570.768 288.822 573.149C294.97 570.768 301.211 568.183 307.514 565.377V216.552C301.355 216.007 295.122 215.584 288.822 215.287C282.521 215.584 276.292 216.007 270.132 216.552ZM83.2208 357.753V277.945C77.184 281.704 71.3401 285.569 65.6919 289.529C70.2229 314.242 76.1456 336.926 83.2208 357.753ZM157.984 486.289V241.505C144.984 246.291 132.513 251.609 120.603 257.369V437.35C132.116 455.733 144.704 471.951 157.984 486.289ZM232.751 546.18V221.447C219.924 223.685 207.459 226.447 195.366 229.671V520.721C207.649 530.363 220.193 538.791 232.751 546.18ZM494.426 277.948V357.745C501.501 336.921 507.424 314.239 511.955 289.529C506.307 285.569 500.463 281.704 494.426 277.948ZM419.662 241.505V486.286C432.943 471.946 445.53 455.725 457.044 437.347V257.371C445.133 251.612 432.663 246.291 419.662 241.505ZM344.896 221.45V546.18C357.454 538.788 369.997 530.361 382.28 520.718V229.674C370.19 226.447 357.723 223.688 344.896 221.45Z" fill="white"/>
<path fill-rule="evenodd" clip-rule="evenodd" d="M288.853 631.186C199.539 596.569 134.985 557.158 80.8896 477.801C4.75065 366.107 -3.91462 237.143 1.18722 107.948C91.2835 40.5058 172.66 5.46634 288.853 -0.00060144V35.9127C194.128 40.2998 112.449 70.1619 37.8841 125.971C33.3829 239.989 45.4458 360.275 112.172 458.166C156.678 523.453 214.236 563.582 288.853 592.5V631.186Z" fill="white"/>
<path d="M317.146 91.8078C319.791 92.5154 322.51 95.2299 323.219 97.8708L331.801 129.845C332.51 132.486 330.94 134.054 328.294 133.346L296.266 124.778C293.621 124.071 290.901 121.356 290.193 118.715L281.611 86.7407C280.902 84.0998 282.472 82.5326 285.117 83.2402L317.146 91.8078Z" fill="#1A1A25"/>
<path d="M272.39 85.1791C274.327 83.2458 276.471 83.8194 277.18 86.4603L285.762 118.435C286.471 121.076 285.476 124.784 283.539 126.717L260.093 150.124C258.156 152.057 256.012 151.484 255.303 148.843L246.721 116.868C246.012 114.227 247.007 110.519 248.944 108.586L272.39 85.1791Z" fill="#1A1A25"/>
<path d="M286.175 131.622C288.111 129.689 291.826 128.696 294.471 129.403L326.5 137.971C329.145 138.678 329.72 140.819 327.783 142.753L304.336 166.16C302.4 168.093 298.686 169.086 296.04 168.379L264.012 159.811C261.366 159.104 260.792 156.963 262.728 155.029L286.175 131.622Z" fill="#1A1A25"/>
<path d="M458.904 134.967C460.925 135.492 463.002 137.509 463.543 139.472L470.098 163.229C470.64 165.191 469.44 166.356 467.42 165.83L442.956 159.464C440.936 158.938 438.859 156.922 438.318 154.959L431.763 131.202C431.221 129.24 432.42 128.075 434.441 128.601L458.904 134.967Z" fill="#1A1A25"/>
<path d="M424.72 130.041C426.199 128.605 427.837 129.031 428.379 130.993L434.933 154.751C435.475 156.713 434.715 159.468 433.236 160.905L415.327 178.297C413.848 179.733 412.21 179.307 411.668 177.345L405.114 153.587C404.572 151.625 405.332 148.87 406.811 147.433L424.72 130.041Z" fill="#1A1A25"/>
<path d="M435.249 164.55C436.728 163.113 439.565 162.375 441.585 162.901L466.049 169.266C468.069 169.792 468.508 171.383 467.029 172.819L449.121 190.211C447.642 191.648 444.804 192.386 442.784 191.86L418.32 185.494C416.3 184.968 415.861 183.378 417.34 181.941L435.249 164.55Z" fill="#1A1A25"/>
<path d="M158.92 134.967C160.941 135.492 163.018 137.509 163.559 139.472L170.114 163.229C170.656 165.191 169.457 166.356 167.436 165.83L142.972 159.464C140.952 158.938 138.875 156.922 138.334 154.959L131.779 131.202C131.237 129.24 132.436 128.075 134.457 128.601L158.92 134.967Z" fill="#1A1A25"/>
<path d="M124.736 130.041C126.215 128.605 127.853 129.031 128.395 130.993L134.95 154.751C135.491 156.713 134.731 159.468 133.252 160.905L115.343 178.297C113.864 179.733 112.226 179.307 111.685 177.345L105.13 153.587C104.588 151.625 105.348 148.87 106.828 147.433L124.736 130.041Z" fill="#1A1A25"/>
<path d="M135.265 164.55C136.744 163.113 139.581 162.375 141.602 162.901L166.065 169.266C168.086 169.792 168.525 171.383 167.045 172.819L149.137 190.211C147.658 191.648 144.821 192.386 142.8 191.86L118.337 185.494C116.316 184.968 115.877 183.378 117.356 181.941L135.265 164.55Z" fill="#1A1A25"/>
</g>
</svg>
