<svg width="25" height="24" viewBox="0 0 25 24" fill="none" xmlns="http://www.w3.org/2000/svg">
<path d="M12.5003 0.188122C9.27946 -0.000113696 4.82521 2.68224 3.00069 4.04694C0.720787 15.3787 8.38378 21.443 12.5003 23.0587C21.7646 20.047 22.9046 9.1293 22.3165 4.04694C20.3864 2.8391 15.7211 0.376357 12.5003 0.188122Z" fill="white"/>
<path fill-rule="evenodd" clip-rule="evenodd" d="M4.23624 10.2559C6.64891 8.5783 9.52664 7.64862 12.4637 7.50462L12.4971 7.50293L12.5305 7.50462C15.4676 7.64862 18.3453 8.5783 20.7581 10.2559C20.971 8.74402 21.0576 7.04424 20.9853 5.13213C18.8926 3.49979 15.984 2.21883 12.4971 2.04785C9.0102 2.21883 6.10163 3.49979 4.00901 5.13213C3.93661 7.04424 4.0232 8.74402 4.23624 10.2559Z" fill="#244065"/>
<path fill-rule="evenodd" clip-rule="evenodd" d="M12.4995 24C15.7584 22.6837 18.114 21.1852 20.0879 18.1678C22.8662 13.9207 23.1823 9.01708 22.9962 4.1046C19.7087 1.5402 16.7393 0.207874 12.4995 0V1.36555C15.956 1.53237 18.9363 2.66784 21.6572 4.7899C21.8214 9.12528 21.3812 13.699 18.9465 17.4212C17.3225 19.9036 15.2222 21.4295 12.4995 22.529V24Z" fill="#B3B3B3"/>
<path fill-rule="evenodd" clip-rule="evenodd" d="M11.8188 8.23382V21.4974C12.0487 21.6041 12.2764 21.7024 12.5007 21.793C12.7251 21.7024 12.9528 21.6041 13.1828 21.4974V8.23382C12.9581 8.21309 12.7306 8.19703 12.5007 8.18572C12.2708 8.19703 12.0435 8.21309 11.8188 8.23382ZM4.9985 13.6028V10.5682C4.77822 10.7111 4.56498 10.8581 4.35889 11.0087C4.52422 11.9484 4.74034 12.8109 4.9985 13.6028ZM7.72657 18.4902V9.18264C7.25219 9.36463 6.79715 9.56685 6.36254 9.78583V16.6294C6.78267 17.3284 7.24197 17.945 7.72657 18.4902ZM10.4547 20.7675V8.41998C9.9867 8.50507 9.53186 8.6101 9.0906 8.73268V19.7994C9.5388 20.1661 9.99652 20.4865 10.4547 20.7675ZM20.0031 10.5683V13.6025C20.2612 12.8107 20.4774 11.9483 20.6427 11.0087C20.4366 10.8581 20.2234 10.7111 20.0031 10.5683ZM17.275 9.18264V18.4901C17.7596 17.9448 18.2189 17.3281 18.639 16.6293V9.78593C18.2044 9.56695 17.7494 9.36463 17.275 9.18264ZM14.5468 8.42008V20.7675C15.0051 20.4864 15.4628 20.166 15.911 19.7993V8.73278C15.4698 8.6101 15.0149 8.50517 14.5468 8.42008Z" fill="#CC0000"/>
<path fill-rule="evenodd" clip-rule="evenodd" d="M12.5005 24C9.24149 22.6837 6.88595 21.1852 4.91205 18.1678C2.1338 13.9207 1.81761 9.01708 2.00377 4.1046C5.29132 1.5402 8.26069 0.207874 12.5005 0V1.36555C9.04402 1.53237 6.06364 2.66784 3.34281 4.7899C3.17857 9.12528 3.61873 13.699 6.05352 17.4212C7.67751 19.9036 9.77776 21.4295 12.5005 22.529V24Z" fill="#CCCCCC"/>
<path d="M13.5302 3.49141C13.6268 3.51832 13.726 3.62153 13.7518 3.72195L14.065 4.93774C14.0909 5.03816 14.0336 5.09775 13.9371 5.07084L12.7684 4.74507C12.6718 4.71816 12.5726 4.61495 12.5467 4.51453L12.2336 3.29874C12.2077 3.19833 12.265 3.13873 12.3615 3.16564L13.5302 3.49141Z" fill="white"/>
<path d="M11.8971 3.23936C11.9678 3.16585 12.0461 3.18766 12.0719 3.28808L12.3851 4.50387C12.4109 4.60429 12.3746 4.74528 12.304 4.81879L11.4484 5.70881C11.3778 5.78232 11.2995 5.76051 11.2736 5.66009L10.9605 4.4443C10.9346 4.34389 10.9709 4.20289 11.0416 4.12938L11.8971 3.23936Z" fill="white"/>
<path d="M12.4001 5.00531C12.4708 4.9318 12.6063 4.89402 12.7029 4.92092L13.8716 5.24669C13.9681 5.2736 13.9891 5.35501 13.9184 5.42852L13.0628 6.31853C12.9922 6.39204 12.8566 6.42982 12.7601 6.40292L11.5914 6.07715C11.4949 6.05024 11.4739 5.96884 11.5446 5.89533L12.4001 5.00531Z" fill="white"/>
<path d="M18.7089 5.13162C18.7826 5.15161 18.8584 5.2283 18.8782 5.30291L19.1174 6.20626C19.1371 6.28087 19.0934 6.32515 19.0196 6.30516L18.127 6.06311C18.0532 6.04311 17.9775 5.96642 17.9577 5.89181L17.7185 4.98846C17.6988 4.91385 17.7425 4.86957 17.8162 4.88957L18.7089 5.13162Z" fill="white"/>
<path d="M17.4615 4.94434C17.5155 4.88972 17.5753 4.90593 17.595 4.98054L17.8342 5.88389C17.854 5.9585 17.8262 6.06326 17.7723 6.11788L17.1188 6.77918C17.0648 6.8338 17.0051 6.81759 16.9853 6.74298L16.7461 5.83963C16.7264 5.76502 16.7541 5.66026 16.8081 5.60564L17.4615 4.94434Z" fill="white"/>
<path d="M17.8457 6.25647C17.8997 6.20185 18.0032 6.17378 18.0769 6.19377L18.9696 6.43582C19.0433 6.45581 19.0593 6.5163 19.0054 6.57091L18.3519 7.23221C18.2979 7.28683 18.1944 7.3149 18.1207 7.29491L17.228 7.05286C17.1543 7.03287 17.1383 6.97238 17.1923 6.91776L17.8457 6.25647Z" fill="white"/>
<path d="M7.75578 5.13162C7.8295 5.15161 7.90529 5.2283 7.92504 5.30291L8.16423 6.20626C8.18399 6.28087 8.14023 6.32515 8.0665 6.30516L7.17385 6.06311C7.10012 6.04311 7.02434 5.96642 7.00458 5.89181L6.76539 4.98846C6.74564 4.91385 6.78939 4.86957 6.86312 4.88957L7.75578 5.13162Z" fill="white"/>
<path d="M6.50842 4.94434C6.56239 4.88972 6.62216 4.90593 6.64191 4.98054L6.8811 5.88389C6.90085 5.9585 6.87312 6.06326 6.81914 6.11788L6.16567 6.77918C6.1117 6.8338 6.05193 6.81759 6.03218 6.74298L5.79299 5.83963C5.77323 5.76502 5.80097 5.66026 5.85495 5.60564L6.50842 4.94434Z" fill="white"/>
<path d="M6.8926 6.25647C6.94657 6.20185 7.05009 6.17378 7.12382 6.19377L8.01648 6.43582C8.09021 6.45581 8.10622 6.5163 8.05225 6.57091L7.39878 7.23221C7.34481 7.28683 7.24128 7.3149 7.16756 7.29491L6.2749 7.05286C6.20117 7.03287 6.18516 6.97238 6.23913 6.91776L6.8926 6.25647Z" fill="white"/>
</svg>
