<svg width="117" height="20" viewBox="0 0 117 20" fill="none" xmlns="http://www.w3.org/2000/svg">
<path d="M0.764205 15.5V0.954545H10.5653V3.49006H3.83949V6.95597H10.0611V9.49148H3.83949V12.9645H10.5938V15.5H0.764205ZM21.2302 7.7017L18.4603 7.87216C18.4129 7.63542 18.3112 7.42235 18.1549 7.23295C17.9987 7.03883 17.7927 6.88494 17.537 6.77131C17.2861 6.65294 16.9854 6.59375 16.635 6.59375C16.1663 6.59375 15.7709 6.69318 15.4489 6.89205C15.127 7.08617 14.966 7.34659 14.966 7.6733C14.966 7.93371 15.0701 8.15388 15.2785 8.33381C15.4868 8.51373 15.8443 8.65814 16.3509 8.76705L18.3254 9.16477C19.386 9.38258 20.1767 9.73295 20.6975 10.2159C21.2183 10.6989 21.4788 11.3333 21.4788 12.1193C21.4788 12.8343 21.2681 13.4616 20.8467 14.0014C20.43 14.5412 19.8571 14.9626 19.1279 15.2656C18.4035 15.5639 17.5678 15.7131 16.6208 15.7131C15.1767 15.7131 14.0261 15.4124 13.1691 14.8111C12.3168 14.205 11.8173 13.3812 11.6705 12.3395L14.6464 12.1832C14.7363 12.6236 14.9541 12.9598 15.2998 13.1918C15.6454 13.419 16.0881 13.5327 16.6279 13.5327C17.1582 13.5327 17.5844 13.4309 17.9063 13.2273C18.233 13.0189 18.3987 12.7514 18.4035 12.4247C18.3987 12.1501 18.2827 11.9252 18.0555 11.75C17.8282 11.5701 17.4778 11.4328 17.0043 11.3381L15.1151 10.9616C14.0498 10.7486 13.2567 10.3793 12.7359 9.85369C12.2198 9.32812 11.9617 8.65814 11.9617 7.84375C11.9617 7.14299 12.1511 6.5393 12.5299 6.03267C12.9134 5.52604 13.4508 5.13542 14.1421 4.8608C14.8381 4.58617 15.6525 4.44886 16.5853 4.44886C17.9631 4.44886 19.0474 4.74006 19.8381 5.32244C20.6336 5.90483 21.0976 6.69792 21.2302 7.7017ZM27.5129 15.7131C26.3955 15.7131 25.4343 15.4763 24.6294 15.0028C23.8292 14.5246 23.2137 13.8617 22.7828 13.0142C22.3567 12.1667 22.1436 11.1913 22.1436 10.0881C22.1436 8.97064 22.359 7.99053 22.7899 7.14773C23.2255 6.30019 23.8434 5.63968 24.6436 5.16619C25.4438 4.68797 26.3955 4.44886 27.4987 4.44886C28.4504 4.44886 29.2838 4.62169 29.9987 4.96733C30.7137 5.31297 31.2795 5.7983 31.6962 6.4233C32.1128 7.0483 32.3425 7.7822 32.3851 8.625H29.53C29.4495 8.08049 29.2364 7.64252 28.8908 7.31108C28.5499 6.97491 28.1024 6.80682 27.5484 6.80682C27.0797 6.80682 26.6701 6.93466 26.3197 7.19034C25.9741 7.44129 25.7042 7.80824 25.5101 8.29119C25.316 8.77415 25.2189 9.3589 25.2189 10.0455C25.2189 10.7415 25.3136 11.3333 25.503 11.821C25.6971 12.3087 25.9694 12.6804 26.3197 12.9361C26.6701 13.1918 27.0797 13.3196 27.5484 13.3196C27.8941 13.3196 28.2042 13.2486 28.4788 13.1065C28.7582 12.9645 28.9878 12.7585 29.1678 12.4886C29.3524 12.214 29.4732 11.8849 29.53 11.5014H32.3851C32.3377 12.3348 32.1105 13.0687 31.7033 13.7031C31.3008 14.3329 30.7445 14.8253 30.0342 15.1804C29.324 15.5355 28.4836 15.7131 27.5129 15.7131ZM33.5222 15.5V4.59091H36.4555V6.49432H36.5691C36.768 5.81723 37.1018 5.30587 37.5705 4.96023C38.0393 4.60985 38.579 4.43466 39.1898 4.43466C39.3414 4.43466 39.5047 4.44413 39.6799 4.46307C39.8551 4.48201 40.009 4.50805 40.1415 4.54119V7.22585C39.9995 7.18324 39.803 7.14536 39.5521 7.11222C39.3011 7.07907 39.0715 7.0625 38.8631 7.0625C38.4181 7.0625 38.0203 7.15956 37.67 7.35369C37.3243 7.54309 37.0497 7.80824 36.8461 8.14915C36.6472 8.49006 36.5478 8.88305 36.5478 9.32812V15.5H33.5222ZM45.327 15.7131C44.2238 15.7131 43.2697 15.4787 42.4648 15.0099C41.6646 14.5365 41.0467 13.8783 40.6111 13.0355C40.1755 12.188 39.9577 11.2055 39.9577 10.0881C39.9577 8.96117 40.1755 7.97633 40.6111 7.13352C41.0467 6.28598 41.6646 5.62784 42.4648 5.15909C43.2697 4.68561 44.2238 4.44886 45.327 4.44886C46.4302 4.44886 47.3819 4.68561 48.1821 5.15909C48.987 5.62784 49.6073 6.28598 50.0429 7.13352C50.4785 7.97633 50.6963 8.96117 50.6963 10.0881C50.6963 11.2055 50.4785 12.188 50.0429 13.0355C49.6073 13.8783 48.987 14.5365 48.1821 15.0099C47.3819 15.4787 46.4302 15.7131 45.327 15.7131ZM45.3412 13.3693C45.8431 13.3693 46.2621 13.2273 46.5983 12.9432C46.9345 12.6544 47.1878 12.2614 47.3582 11.7642C47.5334 11.267 47.621 10.7012 47.621 10.0668C47.621 9.43229 47.5334 8.86648 47.3582 8.36932C47.1878 7.87216 46.9345 7.47917 46.5983 7.19034C46.2621 6.90151 45.8431 6.7571 45.3412 6.7571C44.8346 6.7571 44.4084 6.90151 44.0628 7.19034C43.7219 7.47917 43.4638 7.87216 43.2886 8.36932C43.1182 8.86648 43.033 9.43229 43.033 10.0668C43.033 10.7012 43.1182 11.267 43.2886 11.7642C43.4638 12.2614 43.7219 12.6544 44.0628 12.9432C44.4084 13.2273 44.8346 13.3693 45.3412 13.3693ZM53.7422 15.5L50.7734 4.59091H53.8345L55.5249 11.9205H55.6243L57.3857 4.59091H60.3899L62.1797 11.8778H62.272L63.9339 4.59091H66.9879L64.0263 15.5H60.8232L58.9482 8.6392H58.8132L56.9382 15.5H53.7422ZM70.8275 0.954545V15.5H67.8019V0.954545H70.8275ZM74.319 19.5909C73.9355 19.5909 73.5757 19.5601 73.2395 19.4986C72.9081 19.4418 72.6334 19.3684 72.4156 19.2784L73.0974 17.0199C73.4526 17.1288 73.7722 17.188 74.0563 17.1974C74.3451 17.2069 74.5937 17.1406 74.802 16.9986C75.0151 16.8565 75.1879 16.6151 75.3205 16.2741L75.498 15.8125L71.5847 4.59091H74.7665L77.025 12.6023H77.1386L79.4185 4.59091H82.6216L78.3815 16.679C78.1779 17.2661 77.9009 17.7775 77.5506 18.2131C77.2049 18.6534 76.767 18.992 76.2366 19.2287C75.7063 19.4702 75.0671 19.5909 74.319 19.5909Z" fill="#030518"/>
<path d="M87.909 15.5H85.5795L93.2286 0.954545H95.7641L98.5837 15.5H96.2542L94.1306 3.59659H94.017L87.909 15.5ZM89.2443 9.80398H96.8011L96.4886 11.6506H88.9318L89.2443 9.80398ZM99.8842 15.5L102.299 0.954545H107.484C108.611 0.954545 109.51 1.16051 110.183 1.57244C110.86 1.98437 111.324 2.54545 111.575 3.25568C111.83 3.96591 111.885 4.76847 111.738 5.66335C111.586 6.55824 111.264 7.36316 110.772 8.07812C110.284 8.78835 109.633 9.3518 108.819 9.76847C108.004 10.1804 107.036 10.3864 105.914 10.3864H102.342L102.647 8.52557H106.013C106.728 8.52557 107.33 8.40246 107.817 8.15625C108.31 7.9053 108.696 7.56439 108.975 7.13352C109.254 6.69792 109.437 6.20786 109.522 5.66335C109.612 5.10937 109.588 4.62169 109.451 4.20028C109.314 3.77415 109.041 3.44034 108.634 3.19886C108.232 2.95739 107.668 2.83665 106.944 2.83665H104.188L102.079 15.5H99.8842ZM116.448 0.954545L114.033 15.5H111.838L114.253 0.954545H116.448Z" fill="#19459F"/>
</svg>
