<svg width="145" height="20" viewBox="0 0 145 20" fill="none" xmlns="http://www.w3.org/2000/svg">
<path d="M0.264205 15.5V0.954545H10.0653V3.49006H3.33949V6.95597H9.56108V9.49148H3.33949V12.9645H10.0938V15.5H0.264205ZM20.7302 7.7017L17.9603 7.87216C17.9129 7.63542 17.8112 7.42235 17.6549 7.23295C17.4987 7.03883 17.2927 6.88494 17.037 6.77131C16.7861 6.65294 16.4854 6.59375 16.135 6.59375C15.6663 6.59375 15.2709 6.69318 14.9489 6.89205C14.627 7.08617 14.466 7.34659 14.466 7.6733C14.466 7.93371 14.5701 8.15388 14.7785 8.33381C14.9868 8.51373 15.3443 8.65814 15.8509 8.76705L17.8254 9.16477C18.886 9.38258 19.6767 9.73295 20.1975 10.2159C20.7183 10.6989 20.9788 11.3333 20.9788 12.1193C20.9788 12.8343 20.7681 13.4616 20.3467 14.0014C19.93 14.5412 19.3571 14.9626 18.6279 15.2656C17.9035 15.5639 17.0678 15.7131 16.1208 15.7131C14.6767 15.7131 13.5261 15.4124 12.6691 14.8111C11.8168 14.205 11.3173 13.3812 11.1705 12.3395L14.1464 12.1832C14.2363 12.6236 14.4541 12.9598 14.7998 13.1918C15.1454 13.419 15.5881 13.5327 16.1279 13.5327C16.6582 13.5327 17.0844 13.4309 17.4063 13.2273C17.733 13.0189 17.8987 12.7514 17.9035 12.4247C17.8987 12.1501 17.7827 11.9252 17.5555 11.75C17.3282 11.5701 16.9778 11.4328 16.5043 11.3381L14.6151 10.9616C13.5498 10.7486 12.7567 10.3793 12.2359 9.85369C11.7198 9.32812 11.4617 8.65814 11.4617 7.84375C11.4617 7.14299 11.6511 6.5393 12.0299 6.03267C12.4134 5.52604 12.9508 5.13542 13.6421 4.8608C14.3381 4.58617 15.1525 4.44886 16.0853 4.44886C17.4631 4.44886 18.5474 4.74006 19.3381 5.32244C20.1336 5.90483 20.5976 6.69792 20.7302 7.7017ZM27.0129 15.7131C25.8955 15.7131 24.9343 15.4763 24.1294 15.0028C23.3292 14.5246 22.7137 13.8617 22.2828 13.0142C21.8567 12.1667 21.6436 11.1913 21.6436 10.0881C21.6436 8.97064 21.859 7.99053 22.2899 7.14773C22.7255 6.30019 23.3434 5.63968 24.1436 5.16619C24.9438 4.68797 25.8955 4.44886 26.9987 4.44886C27.9504 4.44886 28.7838 4.62169 29.4987 4.96733C30.2137 5.31297 30.7795 5.7983 31.1962 6.4233C31.6128 7.0483 31.8425 7.7822 31.8851 8.625H29.03C28.9495 8.08049 28.7364 7.64252 28.3908 7.31108C28.0499 6.97491 27.6024 6.80682 27.0484 6.80682C26.5797 6.80682 26.1701 6.93466 25.8197 7.19034C25.4741 7.44129 25.2042 7.80824 25.0101 8.29119C24.816 8.77415 24.7189 9.3589 24.7189 10.0455C24.7189 10.7415 24.8136 11.3333 25.003 11.821C25.1971 12.3087 25.4694 12.6804 25.8197 12.9361C26.1701 13.1918 26.5797 13.3196 27.0484 13.3196C27.3941 13.3196 27.7042 13.2486 27.9788 13.1065C28.2582 12.9645 28.4878 12.7585 28.6678 12.4886C28.8524 12.214 28.9732 11.8849 29.03 11.5014H31.8851C31.8377 12.3348 31.6105 13.0687 31.2033 13.7031C30.8008 14.3329 30.2445 14.8253 29.5342 15.1804C28.824 15.5355 27.9836 15.7131 27.0129 15.7131ZM33.0222 15.5V4.59091H35.9555V6.49432H36.0691C36.268 5.81723 36.6018 5.30587 37.0705 4.96023C37.5393 4.60985 38.079 4.43466 38.6898 4.43466C38.8414 4.43466 39.0047 4.44413 39.1799 4.46307C39.3551 4.48201 39.509 4.50805 39.6415 4.54119V7.22585C39.4995 7.18324 39.303 7.14536 39.0521 7.11222C38.8011 7.07907 38.5715 7.0625 38.3631 7.0625C37.9181 7.0625 37.5203 7.15956 37.17 7.35369C36.8243 7.54309 36.5497 7.80824 36.3461 8.14915C36.1472 8.49006 36.0478 8.88305 36.0478 9.32812V15.5H33.0222ZM44.827 15.7131C43.7238 15.7131 42.7697 15.4787 41.9648 15.0099C41.1646 14.5365 40.5467 13.8783 40.1111 13.0355C39.6755 12.188 39.4577 11.2055 39.4577 10.0881C39.4577 8.96117 39.6755 7.97633 40.1111 7.13352C40.5467 6.28598 41.1646 5.62784 41.9648 5.15909C42.7697 4.68561 43.7238 4.44886 44.827 4.44886C45.9302 4.44886 46.8819 4.68561 47.6821 5.15909C48.487 5.62784 49.1073 6.28598 49.5429 7.13352C49.9785 7.97633 50.1963 8.96117 50.1963 10.0881C50.1963 11.2055 49.9785 12.188 49.5429 13.0355C49.1073 13.8783 48.487 14.5365 47.6821 15.0099C46.8819 15.4787 45.9302 15.7131 44.827 15.7131ZM44.8412 13.3693C45.3431 13.3693 45.7621 13.2273 46.0983 12.9432C46.4345 12.6544 46.6878 12.2614 46.8582 11.7642C47.0334 11.267 47.121 10.7012 47.121 10.0668C47.121 9.43229 47.0334 8.86648 46.8582 8.36932C46.6878 7.87216 46.4345 7.47917 46.0983 7.19034C45.7621 6.90151 45.3431 6.7571 44.8412 6.7571C44.3346 6.7571 43.9084 6.90151 43.5628 7.19034C43.2219 7.47917 42.9638 7.87216 42.7886 8.36932C42.6182 8.86648 42.533 9.43229 42.533 10.0668C42.533 10.7012 42.6182 11.267 42.7886 11.7642C42.9638 12.2614 43.2219 12.6544 43.5628 12.9432C43.9084 13.2273 44.3346 13.3693 44.8412 13.3693ZM53.2422 15.5L50.2734 4.59091H53.3345L55.0249 11.9205H55.1243L56.8857 4.59091H59.8899L61.6797 11.8778H61.772L63.4339 4.59091H66.4879L63.5263 15.5H60.3232L58.4482 8.6392H58.3132L56.4382 15.5H53.2422ZM70.3275 0.954545V15.5H67.3019V0.954545H70.3275ZM73.819 19.5909C73.4355 19.5909 73.0757 19.5601 72.7395 19.4986C72.4081 19.4418 72.1334 19.3684 71.9156 19.2784L72.5974 17.0199C72.9526 17.1288 73.2722 17.188 73.5563 17.1974C73.8451 17.2069 74.0937 17.1406 74.302 16.9986C74.5151 16.8565 74.6879 16.6151 74.8205 16.2741L74.998 15.8125L71.0847 4.59091H74.2665L76.525 12.6023H76.6386L78.9185 4.59091H82.1216L77.8815 16.679C77.6779 17.2661 77.4009 17.7775 77.0506 18.2131C76.7049 18.6534 76.267 18.992 75.7366 19.2287C75.2063 19.4702 74.5671 19.5909 73.819 19.5909Z" fill="#030518"/>
<path d="M86.1803 15.5L88.5951 0.954545H93.9218C94.954 0.954545 95.7802 1.125 96.4005 1.46591C97.0255 1.80208 97.4564 2.259 97.6931 2.83665C97.9299 3.40956 97.9867 4.05587 97.8636 4.77557C97.7641 5.38163 97.5676 5.89062 97.2741 6.30256C96.9853 6.71449 96.6349 7.04593 96.2229 7.29688C95.811 7.54782 95.3778 7.73011 94.9232 7.84375L94.8948 7.9858C95.3683 8.00947 95.811 8.16572 96.2229 8.45455C96.6396 8.73864 96.9568 9.14347 97.1746 9.66903C97.3925 10.1946 97.4422 10.8338 97.3238 11.5866C97.196 12.33 96.9071 12.9976 96.4573 13.5895C96.0122 14.1766 95.3991 14.643 94.6178 14.9886C93.8366 15.3295 92.8825 15.5 91.7556 15.5H86.1803ZM88.6874 13.6179H91.855C92.9062 13.6179 93.6922 13.4143 94.213 13.0071C94.7386 12.5999 95.0558 12.0909 95.1647 11.4801C95.2357 11.0208 95.186 10.5994 95.0156 10.2159C94.8498 9.83239 94.5705 9.52699 94.1775 9.29972C93.7892 9.07244 93.3015 8.95881 92.7144 8.95881H89.4687L88.6874 13.6179ZM89.7599 7.24716H92.6931C93.1855 7.24716 93.6448 7.15246 94.071 6.96307C94.5018 6.77367 94.8593 6.50616 95.1434 6.16051C95.4322 5.81487 95.6121 5.41004 95.6832 4.94602C95.7873 4.33996 95.6619 3.8357 95.3068 3.43324C94.9564 3.02604 94.3479 2.82244 93.4815 2.82244H90.4843L89.7599 7.24716ZM105.959 10.9759L107.025 4.59091H109.155L107.337 15.5H105.249L105.569 13.6108H105.455C105.114 14.1932 104.631 14.6785 104.006 15.0668C103.386 15.4503 102.666 15.642 101.847 15.642C101.146 15.642 100.552 15.4882 100.064 15.1804C99.5813 14.8679 99.238 14.4062 99.0344 13.7955C98.8308 13.1847 98.8024 12.4295 98.9492 11.5298L100.114 4.59091H102.238L101.123 11.2741C101.004 12.0175 101.115 12.6094 101.456 13.0497C101.797 13.4901 102.294 13.7102 102.948 13.7102C103.346 13.7102 103.757 13.6108 104.184 13.4119C104.61 13.2131 104.986 12.9124 105.313 12.5099C105.644 12.1075 105.86 11.5961 105.959 10.9759ZM116.301 4.59091L116.024 6.29545H110.065L110.342 4.59091H116.301ZM112.366 1.97727H114.49L112.771 12.2969C112.705 12.7088 112.717 13.0189 112.807 13.2273C112.896 13.4309 113.034 13.5705 113.218 13.6463C113.408 13.7173 113.619 13.7528 113.851 13.7528C114.021 13.7528 114.17 13.741 114.298 13.7173C114.426 13.6937 114.528 13.6747 114.603 13.6605L114.717 15.4148C114.575 15.4621 114.383 15.5095 114.142 15.5568C113.905 15.6089 113.616 15.6373 113.275 15.642C112.717 15.6515 112.212 15.5521 111.762 15.3438C111.313 15.1307 110.977 14.8087 110.754 14.3778C110.531 13.9422 110.477 13.3954 110.591 12.7372L112.366 1.97727ZM122.942 4.59091L122.665 6.29545H116.706L116.983 4.59091H122.942ZM119.008 1.97727H121.131L119.412 12.2969C119.346 12.7088 119.358 13.0189 119.448 13.2273C119.538 13.4309 119.675 13.5705 119.86 13.6463C120.049 13.7173 120.26 13.7528 120.492 13.7528C120.662 13.7528 120.812 13.741 120.939 13.7173C121.067 13.6937 121.169 13.6747 121.245 13.6605L121.358 15.4148C121.216 15.4621 121.025 15.5095 120.783 15.5568C120.546 15.6089 120.258 15.6373 119.917 15.642C119.358 15.6515 118.854 15.5521 118.404 15.3438C117.954 15.1307 117.618 14.8087 117.395 14.3778C117.173 13.9422 117.118 13.3954 117.232 12.7372L119.008 1.97727ZM127.201 15.7202C126.164 15.7202 125.297 15.4834 124.601 15.0099C123.905 14.5317 123.415 13.8641 123.131 13.0071C122.852 12.1454 122.805 11.1439 122.989 10.0028C123.169 8.88542 123.531 7.91004 124.076 7.0767C124.625 6.24337 125.312 5.59706 126.136 5.13778C126.964 4.6785 127.885 4.44886 128.898 4.44886C129.935 4.44886 130.799 4.68797 131.491 5.16619C132.187 5.64441 132.677 6.31439 132.961 7.17614C133.245 8.03788 133.295 9.04167 133.11 10.1875C132.93 11.2955 132.563 12.2661 132.009 13.0994C131.46 13.928 130.773 14.572 129.949 15.0312C129.126 15.4905 128.209 15.7202 127.201 15.7202ZM127.322 13.9375C128.003 13.9375 128.598 13.7576 129.104 13.3977C129.616 13.0379 130.032 12.5597 130.354 11.9631C130.676 11.3665 130.896 10.7131 131.015 10.0028C131.124 9.31629 131.121 8.68892 131.008 8.12074C130.899 7.54782 130.662 7.08854 130.297 6.7429C129.933 6.39725 129.426 6.22443 128.778 6.22443C128.096 6.22443 127.497 6.40672 126.981 6.77131C126.469 7.13116 126.053 7.61174 125.731 8.21307C125.413 8.81439 125.198 9.47017 125.084 10.1804C124.975 10.8622 124.975 11.4896 125.084 12.0625C125.193 12.6307 125.43 13.0852 125.795 13.4261C126.159 13.767 126.668 13.9375 127.322 13.9375ZM137.003 9.02273L135.937 15.5H133.814L135.632 4.59091H137.67L137.372 6.36648H137.507C137.853 5.78409 138.324 5.32008 138.92 4.97443C139.522 4.62405 140.232 4.44886 141.051 4.44886C141.79 4.44886 142.41 4.60511 142.912 4.91761C143.418 5.22538 143.776 5.68466 143.984 6.29545C144.197 6.90625 144.231 7.66146 144.084 8.56108L142.919 15.5H140.795L141.91 8.81676C142.038 8.02604 141.934 7.40814 141.598 6.96307C141.267 6.51326 140.739 6.28835 140.014 6.28835C139.522 6.28835 139.065 6.39489 138.643 6.60795C138.227 6.82102 137.874 7.13352 137.585 7.54545C137.301 7.95265 137.107 8.44508 137.003 9.02273Z" fill="#19459F"/>
</svg>
