<svg width="132" height="20" viewBox="0 0 132 20" fill="none" xmlns="http://www.w3.org/2000/svg">
<path d="M0.264205 15.5V0.954545H10.0653V3.49006H3.33949V6.95597H9.56108V9.49148H3.33949V12.9645H10.0938V15.5H0.264205ZM20.7302 7.7017L17.9603 7.87216C17.9129 7.63542 17.8112 7.42235 17.6549 7.23295C17.4987 7.03883 17.2927 6.88494 17.037 6.77131C16.7861 6.65294 16.4854 6.59375 16.135 6.59375C15.6663 6.59375 15.2709 6.69318 14.9489 6.89205C14.627 7.08617 14.466 7.34659 14.466 7.6733C14.466 7.93371 14.5701 8.15388 14.7785 8.33381C14.9868 8.51373 15.3443 8.65814 15.8509 8.76705L17.8254 9.16477C18.886 9.38258 19.6767 9.73295 20.1975 10.2159C20.7183 10.6989 20.9788 11.3333 20.9788 12.1193C20.9788 12.8343 20.7681 13.4616 20.3467 14.0014C19.93 14.5412 19.3571 14.9626 18.6279 15.2656C17.9035 15.5639 17.0678 15.7131 16.1208 15.7131C14.6767 15.7131 13.5261 15.4124 12.6691 14.8111C11.8168 14.205 11.3173 13.3812 11.1705 12.3395L14.1464 12.1832C14.2363 12.6236 14.4541 12.9598 14.7998 13.1918C15.1454 13.419 15.5881 13.5327 16.1279 13.5327C16.6582 13.5327 17.0844 13.4309 17.4063 13.2273C17.733 13.0189 17.8987 12.7514 17.9035 12.4247C17.8987 12.1501 17.7827 11.9252 17.5555 11.75C17.3282 11.5701 16.9778 11.4328 16.5043 11.3381L14.6151 10.9616C13.5498 10.7486 12.7567 10.3793 12.2359 9.85369C11.7198 9.32812 11.4617 8.65814 11.4617 7.84375C11.4617 7.14299 11.6511 6.5393 12.0299 6.03267C12.4134 5.52604 12.9508 5.13542 13.6421 4.8608C14.3381 4.58617 15.1525 4.44886 16.0853 4.44886C17.4631 4.44886 18.5474 4.74006 19.3381 5.32244C20.1336 5.90483 20.5976 6.69792 20.7302 7.7017ZM27.0129 15.7131C25.8955 15.7131 24.9343 15.4763 24.1294 15.0028C23.3292 14.5246 22.7137 13.8617 22.2828 13.0142C21.8567 12.1667 21.6436 11.1913 21.6436 10.0881C21.6436 8.97064 21.859 7.99053 22.2899 7.14773C22.7255 6.30019 23.3434 5.63968 24.1436 5.16619C24.9438 4.68797 25.8955 4.44886 26.9987 4.44886C27.9504 4.44886 28.7838 4.62169 29.4987 4.96733C30.2137 5.31297 30.7795 5.7983 31.1962 6.4233C31.6128 7.0483 31.8425 7.7822 31.8851 8.625H29.03C28.9495 8.08049 28.7364 7.64252 28.3908 7.31108C28.0499 6.97491 27.6024 6.80682 27.0484 6.80682C26.5797 6.80682 26.1701 6.93466 25.8197 7.19034C25.4741 7.44129 25.2042 7.80824 25.0101 8.29119C24.816 8.77415 24.7189 9.3589 24.7189 10.0455C24.7189 10.7415 24.8136 11.3333 25.003 11.821C25.1971 12.3087 25.4694 12.6804 25.8197 12.9361C26.1701 13.1918 26.5797 13.3196 27.0484 13.3196C27.3941 13.3196 27.7042 13.2486 27.9788 13.1065C28.2582 12.9645 28.4878 12.7585 28.6678 12.4886C28.8524 12.214 28.9732 11.8849 29.03 11.5014H31.8851C31.8377 12.3348 31.6105 13.0687 31.2033 13.7031C30.8008 14.3329 30.2445 14.8253 29.5342 15.1804C28.824 15.5355 27.9836 15.7131 27.0129 15.7131ZM33.0222 15.5V4.59091H35.9555V6.49432H36.0691C36.268 5.81723 36.6018 5.30587 37.0705 4.96023C37.5393 4.60985 38.079 4.43466 38.6898 4.43466C38.8414 4.43466 39.0047 4.44413 39.1799 4.46307C39.3551 4.48201 39.509 4.50805 39.6415 4.54119V7.22585C39.4995 7.18324 39.303 7.14536 39.0521 7.11222C38.8011 7.07907 38.5715 7.0625 38.3631 7.0625C37.9181 7.0625 37.5203 7.15956 37.17 7.35369C36.8243 7.54309 36.5497 7.80824 36.3461 8.14915C36.1472 8.49006 36.0478 8.88305 36.0478 9.32812V15.5H33.0222ZM44.827 15.7131C43.7238 15.7131 42.7697 15.4787 41.9648 15.0099C41.1646 14.5365 40.5467 13.8783 40.1111 13.0355C39.6755 12.188 39.4577 11.2055 39.4577 10.0881C39.4577 8.96117 39.6755 7.97633 40.1111 7.13352C40.5467 6.28598 41.1646 5.62784 41.9648 5.15909C42.7697 4.68561 43.7238 4.44886 44.827 4.44886C45.9302 4.44886 46.8819 4.68561 47.6821 5.15909C48.487 5.62784 49.1073 6.28598 49.5429 7.13352C49.9785 7.97633 50.1963 8.96117 50.1963 10.0881C50.1963 11.2055 49.9785 12.188 49.5429 13.0355C49.1073 13.8783 48.487 14.5365 47.6821 15.0099C46.8819 15.4787 45.9302 15.7131 44.827 15.7131ZM44.8412 13.3693C45.3431 13.3693 45.7621 13.2273 46.0983 12.9432C46.4345 12.6544 46.6878 12.2614 46.8582 11.7642C47.0334 11.267 47.121 10.7012 47.121 10.0668C47.121 9.43229 47.0334 8.86648 46.8582 8.36932C46.6878 7.87216 46.4345 7.47917 46.0983 7.19034C45.7621 6.90151 45.3431 6.7571 44.8412 6.7571C44.3346 6.7571 43.9084 6.90151 43.5628 7.19034C43.2219 7.47917 42.9638 7.87216 42.7886 8.36932C42.6182 8.86648 42.533 9.43229 42.533 10.0668C42.533 10.7012 42.6182 11.267 42.7886 11.7642C42.9638 12.2614 43.2219 12.6544 43.5628 12.9432C43.9084 13.2273 44.3346 13.3693 44.8412 13.3693ZM53.2422 15.5L50.2734 4.59091H53.3345L55.0249 11.9205H55.1243L56.8857 4.59091H59.8899L61.6797 11.8778H61.772L63.4339 4.59091H66.4879L63.5263 15.5H60.3232L58.4482 8.6392H58.3132L56.4382 15.5H53.2422ZM70.3275 0.954545V15.5H67.3019V0.954545H70.3275ZM73.819 19.5909C73.4355 19.5909 73.0757 19.5601 72.7395 19.4986C72.4081 19.4418 72.1334 19.3684 71.9156 19.2784L72.5974 17.0199C72.9526 17.1288 73.2722 17.188 73.5563 17.1974C73.8451 17.2069 74.0937 17.1406 74.302 16.9986C74.5151 16.8565 74.6879 16.6151 74.8205 16.2741L74.998 15.8125L71.0847 4.59091H74.2665L76.525 12.6023H76.6386L78.9185 4.59091H82.1216L77.8815 16.679C77.6779 17.2661 77.4009 17.7775 77.0506 18.2131C76.7049 18.6534 76.267 18.992 75.7366 19.2287C75.2063 19.4702 74.5671 19.5909 73.819 19.5909Z" fill="#030518"/>
<path d="M100.001 8.36932C99.7457 9.89867 99.2485 11.2102 98.5099 12.304C97.776 13.3977 96.8764 14.2382 95.811 14.8253C94.7504 15.4077 93.6046 15.6989 92.3735 15.6989C91.0904 15.6989 89.9943 15.3935 89.0852 14.7827C88.1808 14.1671 87.5321 13.2936 87.1391 12.1619C86.7461 11.0256 86.6799 9.6714 86.9403 8.09943C87.196 6.57008 87.6907 5.25852 88.4246 4.16477C89.1633 3.06629 90.0653 2.22348 91.1306 1.63636C92.2007 1.04924 93.356 0.755681 94.5965 0.755681C95.8702 0.755681 96.9568 1.06345 97.8565 1.67898C98.7608 2.28977 99.4095 3.16572 99.8025 4.30682C100.195 5.44318 100.262 6.79735 100.001 8.36932ZM97.8636 8.09943C98.0577 6.93939 98.034 5.96402 97.7925 5.1733C97.5558 4.37784 97.151 3.77652 96.5781 3.36932C96.0051 2.96212 95.3139 2.75852 94.5042 2.75852C93.6425 2.75852 92.8352 2.97633 92.0823 3.41193C91.3342 3.84754 90.695 4.48201 90.1647 5.31534C89.6344 6.14867 89.2722 7.16667 89.0781 8.36932C88.8792 9.52936 88.9005 10.5047 89.142 11.2955C89.3835 12.0862 89.7907 12.6851 90.3636 13.0923C90.9412 13.4948 91.6349 13.696 92.4445 13.696C93.3015 13.696 94.1041 13.4806 94.8522 13.0497C95.605 12.6141 96.2466 11.982 96.7769 11.1534C97.3072 10.3201 97.6694 9.30208 97.8636 8.09943ZM107.591 4.59091L107.314 6.29545H101.149L101.426 4.59091H107.591ZM101.298 15.5L103.33 3.3267C103.434 2.64489 103.673 2.07907 104.047 1.62926C104.421 1.17472 104.873 0.836174 105.403 0.613636C105.934 0.386363 106.488 0.272726 107.065 0.272726C107.491 0.272726 107.849 0.308238 108.138 0.379261C108.431 0.445549 108.644 0.507102 108.777 0.56392L108.003 2.28267C107.908 2.25426 107.787 2.22112 107.641 2.18324C107.494 2.14062 107.309 2.11932 107.087 2.11932C106.571 2.11932 106.18 2.24716 105.915 2.50284C105.654 2.75852 105.479 3.12784 105.389 3.6108L103.422 15.5H101.298ZM114.174 4.59091L113.897 6.29545H107.732L108.009 4.59091H114.174ZM107.881 15.5L109.912 3.3267C110.017 2.64489 110.256 2.07907 110.63 1.62926C111.004 1.17472 111.456 0.836174 111.986 0.613636C112.517 0.386363 113.07 0.272726 113.648 0.272726C114.074 0.272726 114.432 0.308238 114.721 0.379261C115.014 0.445549 115.227 0.507102 115.36 0.56392L114.586 2.28267C114.491 2.25426 114.37 2.22112 114.223 2.18324C114.077 2.14062 113.892 2.11932 113.669 2.11932C113.153 2.11932 112.763 2.24716 112.498 2.50284C112.237 2.75852 112.062 3.12784 111.972 3.6108L110.005 15.5H107.881ZM117.99 15.7202C116.92 15.7202 116.035 15.4905 115.334 15.0312C114.638 14.5672 114.15 13.9162 113.871 13.0781C113.592 12.2353 113.547 11.2481 113.736 10.1165C113.921 8.99905 114.292 8.0142 114.851 7.16193C115.41 6.30966 116.106 5.64441 116.939 5.16619C117.777 4.68797 118.703 4.44886 119.716 4.44886C120.332 4.44886 120.912 4.55066 121.456 4.75426C122.005 4.95786 122.472 5.27746 122.855 5.71307C123.239 6.14867 123.504 6.71449 123.651 7.41051C123.802 8.1018 123.797 8.94223 123.637 9.93182L123.516 10.6847H114.837L115.085 9.09375H121.676C121.776 8.53504 121.75 8.04025 121.598 7.60938C121.447 7.17377 121.186 6.83049 120.817 6.57955C120.452 6.3286 119.993 6.20312 119.439 6.20312C118.871 6.20312 118.341 6.35227 117.848 6.65057C117.356 6.94886 116.944 7.33002 116.612 7.79403C116.286 8.25331 116.08 8.7268 115.994 9.21449L115.746 10.6705C115.623 11.4659 115.644 12.1051 115.81 12.5881C115.98 13.071 116.279 13.4214 116.705 13.6392C117.131 13.857 117.663 13.9659 118.303 13.9659C118.715 13.9659 119.096 13.9091 119.446 13.7955C119.801 13.6771 120.116 13.5043 120.391 13.277C120.665 13.045 120.895 12.7562 121.08 12.4105L123.026 12.7727C122.765 13.3646 122.391 13.883 121.904 14.3281C121.416 14.7685 120.841 15.1117 120.178 15.358C119.52 15.5994 118.79 15.7202 117.99 15.7202ZM124.294 15.5L126.112 4.59091H128.165L127.874 6.32386H127.987C128.281 5.73674 128.709 5.27509 129.273 4.93892C129.836 4.59801 130.438 4.42756 131.077 4.42756C131.214 4.42756 131.37 4.43229 131.546 4.44176C131.721 4.4465 131.863 4.45833 131.972 4.47727L131.631 6.50852C131.55 6.48485 131.404 6.45881 131.191 6.4304C130.977 6.39725 130.757 6.38068 130.53 6.38068C130.033 6.38068 129.571 6.48722 129.145 6.70028C128.719 6.90862 128.361 7.19981 128.073 7.57386C127.784 7.94318 127.597 8.36458 127.512 8.83807L126.418 15.5H124.294Z" fill="#19459F"/>
</svg>
