<svg width="311" height="105" viewBox="0 0 311 105" fill="none" xmlns="http://www.w3.org/2000/svg">
<g filter="url(#filter0_di_8067_76429)">
<rect x="22" y="22.5" width="267" height="60" rx="12" fill="white" shape-rendering="crispEdges"/>
<circle cx="46" cy="52.5" r="8" stroke="#CDCDD1" stroke-width="2"/>
<path d="M66.9588 57V48.2727H70.1548C70.7741 48.2727 71.2869 48.375 71.6932 48.5795C72.0994 48.7812 72.4034 49.0554 72.6051 49.402C72.8068 49.7457 72.9077 50.1335 72.9077 50.5653C72.9077 50.929 72.8409 51.2358 72.7074 51.4858C72.5739 51.733 72.3949 51.9318 72.1705 52.0824C71.9489 52.2301 71.7045 52.3381 71.4375 52.4062V52.4915C71.7273 52.5057 72.0099 52.5994 72.2855 52.7727C72.5639 52.9432 72.794 53.1861 72.9759 53.5014C73.1577 53.8168 73.2486 54.2003 73.2486 54.652C73.2486 55.098 73.1435 55.4986 72.9332 55.8537C72.7259 56.206 72.4048 56.4858 71.9702 56.6932C71.5355 56.8977 70.9801 57 70.304 57H66.9588ZM68.2756 55.8707H70.1761C70.8068 55.8707 71.2585 55.7486 71.5312 55.5043C71.804 55.2599 71.9403 54.9545 71.9403 54.5881C71.9403 54.3125 71.8707 54.0597 71.7315 53.8295C71.5923 53.5994 71.3935 53.4162 71.1349 53.2798C70.8793 53.1435 70.5753 53.0753 70.223 53.0753H68.2756V55.8707ZM68.2756 52.0483H70.0398C70.3352 52.0483 70.6009 51.9915 70.8366 51.8778C71.0753 51.7642 71.2642 51.6051 71.4034 51.4006C71.5455 51.1932 71.6165 50.9489 71.6165 50.6676C71.6165 50.3068 71.4901 50.0043 71.2372 49.7599C70.9844 49.5156 70.5966 49.3935 70.0739 49.3935H68.2756V52.0483ZM78.3744 54.2855V50.4545H79.6528V57H78.4V55.8665H78.3318C78.1812 56.2159 77.9397 56.5071 77.6074 56.7401C77.2778 56.9702 76.8673 57.0852 76.3758 57.0852C75.9554 57.0852 75.5832 56.9929 75.2593 56.8082C74.9383 56.6207 74.6855 56.3438 74.5008 55.9773C74.319 55.6108 74.2281 55.1577 74.2281 54.6179V50.4545H75.5022V54.4645C75.5022 54.9105 75.6258 55.2656 75.873 55.5298C76.1201 55.794 76.4412 55.9261 76.8361 55.9261C77.0747 55.9261 77.3119 55.8665 77.5477 55.7472C77.7863 55.6278 77.9838 55.4474 78.14 55.206C78.2991 54.9645 78.3772 54.6577 78.3744 54.2855ZM81.6902 59.4545C81.4999 59.4545 81.3266 59.4389 81.1703 59.4077C81.0141 59.3793 80.8976 59.348 80.8209 59.3139L81.1277 58.2699C81.3607 58.3324 81.5681 58.3594 81.7499 58.3509C81.9317 58.3423 82.0922 58.2741 82.2314 58.1463C82.3735 58.0185 82.4985 57.8097 82.6064 57.5199L82.7641 57.0852L80.3692 50.4545H81.7328L83.3905 55.5341H83.4587L85.1163 50.4545H86.4842L83.7868 57.8736C83.6618 58.2145 83.5027 58.5028 83.3095 58.7386C83.1163 58.9773 82.8862 59.1563 82.6192 59.2756C82.3521 59.3949 82.0425 59.4545 81.6902 59.4545ZM91.3165 57L89.3904 50.4545H90.7071L91.9898 55.2614H92.0537L93.3407 50.4545H94.6574L95.9358 55.2401H95.9997L97.2739 50.4545H98.5907L96.6688 57H95.3691L94.0395 52.2741H93.9415L92.612 57H91.3165ZM99.3198 57V50.4545H100.594V57H99.3198ZM99.9633 49.4446C99.7417 49.4446 99.5513 49.3707 99.3923 49.223C99.236 49.0724 99.1579 48.8935 99.1579 48.6861C99.1579 48.4759 99.236 48.2969 99.3923 48.1491C99.5513 47.9986 99.7417 47.9233 99.9633 47.9233C100.185 47.9233 100.374 47.9986 100.53 48.1491C100.689 48.2969 100.769 48.4759 100.769 48.6861C100.769 48.8935 100.689 49.0724 100.53 49.223C100.374 49.3707 100.185 49.4446 99.9633 49.4446ZM104.883 50.4545V51.4773H101.308V50.4545H104.883ZM102.267 48.8864H103.541V55.0781C103.541 55.3253 103.578 55.5114 103.652 55.6364C103.726 55.7585 103.821 55.8423 103.937 55.8878C104.057 55.9304 104.186 55.9517 104.325 55.9517C104.428 55.9517 104.517 55.9446 104.594 55.9304C104.67 55.9162 104.73 55.9048 104.773 55.8963L105.003 56.9489C104.929 56.9773 104.824 57.0057 104.687 57.0341C104.551 57.0653 104.381 57.0824 104.176 57.0852C103.841 57.0909 103.528 57.0312 103.239 56.9062C102.949 56.7812 102.714 56.5881 102.535 56.3267C102.357 56.0653 102.267 55.7372 102.267 55.3423V48.8864ZM107.228 53.1136V57H105.954V48.2727H107.211V51.5199H107.292C107.445 51.1676 107.679 50.8878 107.995 50.6804C108.31 50.473 108.722 50.3693 109.231 50.3693C109.679 50.3693 110.071 50.4616 110.407 50.6463C110.745 50.831 111.006 51.1065 111.191 51.473C111.378 51.8366 111.472 52.2912 111.472 52.8366V57H110.198V52.9901C110.198 52.5099 110.074 52.1378 109.827 51.8736C109.58 51.6065 109.236 51.473 108.796 51.473C108.495 51.473 108.225 51.5369 107.986 51.6648C107.75 51.7926 107.564 51.9801 107.428 52.2273C107.294 52.4716 107.228 52.767 107.228 53.1136Z" fill="#030518"/>
<path d="M173 40.6881C169.779 40.4999 165.325 43.1822 163.501 44.5469C161.221 55.8787 168.884 61.943 173 63.5587C182.265 60.547 183.405 49.6293 182.817 44.5469C180.886 43.3391 176.221 40.8764 173 40.6881Z" fill="white"/>
<path fill-rule="evenodd" clip-rule="evenodd" d="M164.736 50.7559C167.149 49.0783 170.027 48.1486 172.964 48.0046L172.997 48.0029L173.031 48.0046C175.968 48.1486 178.845 49.0783 181.258 50.7559C181.471 49.244 181.558 47.5442 181.485 45.6321C179.393 43.9998 176.484 42.7188 172.997 42.5479C169.51 42.7188 166.602 43.9998 164.509 45.6321C164.437 47.5442 164.523 49.244 164.736 50.7559Z" fill="#244065"/>
<path fill-rule="evenodd" clip-rule="evenodd" d="M173 64.5C176.258 63.1837 178.614 61.6852 180.588 58.6678C183.366 54.4207 183.682 49.5171 183.496 44.6046C180.209 42.0402 177.239 40.7079 173 40.5V41.8656C176.456 42.0324 179.436 43.1678 182.157 45.2899C182.321 49.6253 181.881 54.199 179.446 57.9212C177.822 60.4036 175.722 61.9295 173 63.029V64.5Z" fill="#B3B3B3"/>
<path fill-rule="evenodd" clip-rule="evenodd" d="M172.319 48.7338V61.9974C172.549 62.1041 172.776 62.2024 173.001 62.293C173.225 62.2024 173.453 62.1041 173.683 61.9974V48.7338C173.458 48.7131 173.231 48.697 173.001 48.6857C172.771 48.697 172.544 48.7131 172.319 48.7338ZM165.499 54.1028V51.0682C165.278 51.2111 165.065 51.3581 164.859 51.5087C165.024 52.4484 165.24 53.3109 165.499 54.1028ZM168.227 58.9902V49.6826C167.752 49.8646 167.297 50.0668 166.863 50.2858V57.1294C167.283 57.8284 167.742 58.445 168.227 58.9902ZM170.955 61.2675V48.92C170.487 49.0051 170.032 49.1101 169.591 49.2327V60.2994C170.039 60.6661 170.497 60.9865 170.955 61.2675ZM180.503 51.0683V54.1025C180.761 53.3107 180.977 52.4483 181.143 51.5087C180.937 51.3581 180.723 51.2111 180.503 51.0683ZM177.775 49.6826V58.9901C178.26 58.4448 178.719 57.8281 179.139 57.1293V50.2859C178.704 50.0669 178.249 49.8646 177.775 49.6826ZM175.047 48.9201V61.2675C175.505 60.9864 175.963 60.666 176.411 60.2993V49.2328C175.97 49.1101 175.515 49.0052 175.047 48.9201Z" fill="#CC0000"/>
<path fill-rule="evenodd" clip-rule="evenodd" d="M173 64.5C169.741 63.1837 167.386 61.6852 165.412 58.6678C162.634 54.4207 162.318 49.5171 162.504 44.6046C165.791 42.0402 168.761 40.7079 173 40.5V41.8656C169.544 42.0324 166.564 43.1678 163.843 45.2899C163.679 49.6253 164.119 54.199 166.554 57.9212C168.178 60.4036 170.278 61.9295 173 63.029V64.5Z" fill="#CCCCCC"/>
<path d="M174.03 43.9914C174.127 44.0183 174.226 44.1215 174.252 44.2219L174.565 45.4377C174.591 45.5382 174.534 45.5977 174.437 45.5708L173.268 45.2451C173.172 45.2182 173.073 45.1149 173.047 45.0145L172.734 43.7987C172.708 43.6983 172.765 43.6387 172.862 43.6656L174.03 43.9914Z" fill="white"/>
<path d="M172.397 43.7394C172.468 43.6659 172.546 43.6877 172.572 43.7881L172.885 45.0039C172.911 45.1043 172.875 45.2453 172.804 45.3188L171.948 46.2088C171.878 46.2823 171.8 46.2605 171.774 46.1601L171.46 44.9443C171.435 44.8439 171.471 44.7029 171.542 44.6294L172.397 43.7394Z" fill="white"/>
<path d="M172.9 45.5053C172.971 45.4318 173.106 45.394 173.203 45.4209L174.372 45.7467C174.468 45.7736 174.489 45.855 174.418 45.9285L173.563 46.8185C173.492 46.892 173.357 46.9298 173.26 46.9029L172.091 46.5771C171.995 46.5502 171.974 46.4688 172.045 46.3953L172.9 45.5053Z" fill="white"/>
<path d="M179.209 45.6316C179.283 45.6516 179.359 45.7283 179.378 45.8029L179.618 46.7063C179.637 46.7809 179.594 46.8251 179.52 46.8052L178.627 46.5631C178.553 46.5431 178.478 46.4664 178.458 46.3918L178.219 45.4885C178.199 45.4139 178.243 45.3696 178.316 45.3896L179.209 45.6316Z" fill="white"/>
<path d="M177.962 45.4443C178.016 45.3897 178.076 45.4059 178.095 45.4805L178.334 46.3839C178.354 46.4585 178.326 46.5633 178.273 46.6179L177.619 47.2792C177.565 47.3338 177.505 47.3176 177.486 47.243L177.246 46.3396C177.227 46.265 177.254 46.1603 177.308 46.1056L177.962 45.4443Z" fill="white"/>
<path d="M178.346 46.7565C178.4 46.7018 178.503 46.6738 178.577 46.6938L179.47 46.9358C179.544 46.9558 179.56 47.0163 179.506 47.0709L178.852 47.7322C178.798 47.7868 178.695 47.8149 178.621 47.7949L177.728 47.5529C177.655 47.5329 177.639 47.4724 177.692 47.4178L178.346 46.7565Z" fill="white"/>
<path d="M168.256 45.6316C168.33 45.6516 168.406 45.7283 168.425 45.8029L168.664 46.7063C168.684 46.7809 168.64 46.8251 168.567 46.8052L167.674 46.5631C167.6 46.5431 167.525 46.4664 167.505 46.3918L167.266 45.4885C167.246 45.4139 167.29 45.3696 167.363 45.3896L168.256 45.6316Z" fill="white"/>
<path d="M167.009 45.4443C167.063 45.3897 167.122 45.4059 167.142 45.4805L167.381 46.3839C167.401 46.4585 167.373 46.5633 167.319 46.6179L166.666 47.2792C166.612 47.3338 166.552 47.3176 166.532 47.243L166.293 46.3396C166.273 46.265 166.301 46.1603 166.355 46.1056L167.009 45.4443Z" fill="white"/>
<path d="M167.393 46.7565C167.447 46.7018 167.55 46.6738 167.624 46.6938L168.517 46.9358C168.59 46.9558 168.606 47.0163 168.552 47.0709L167.899 47.7322C167.845 47.7868 167.742 47.8149 167.668 47.7949L166.775 47.5529C166.701 47.5329 166.685 47.4724 166.739 47.4178L167.393 46.7565Z" fill="white"/>
<path d="M194.264 60V45.4545H204.065V47.9901H197.339V51.456H203.561V53.9915H197.339V57.4645H204.094V60H194.264ZM214.73 52.2017L211.96 52.3722C211.913 52.1354 211.811 51.9223 211.655 51.733C211.499 51.5388 211.293 51.3849 211.037 51.2713C210.786 51.1529 210.485 51.0938 210.135 51.0938C209.666 51.0938 209.271 51.1932 208.949 51.392C208.627 51.5862 208.466 51.8466 208.466 52.1733C208.466 52.4337 208.57 52.6539 208.778 52.8338C208.987 53.0137 209.344 53.1581 209.851 53.267L211.825 53.6648C212.886 53.8826 213.677 54.233 214.198 54.7159C214.718 55.1989 214.979 55.8333 214.979 56.6193C214.979 57.3343 214.768 57.9616 214.347 58.5014C213.93 59.0412 213.357 59.4626 212.628 59.7656C211.903 60.0639 211.068 60.2131 210.121 60.2131C208.677 60.2131 207.526 59.9124 206.669 59.3111C205.817 58.705 205.317 57.8812 205.171 56.8395L208.146 56.6832C208.236 57.1236 208.454 57.4598 208.8 57.6918C209.145 57.919 209.588 58.0327 210.128 58.0327C210.658 58.0327 211.084 57.9309 211.406 57.7273C211.733 57.5189 211.899 57.2514 211.903 56.9247C211.899 56.6501 211.783 56.4252 211.555 56.25C211.328 56.0701 210.978 55.9328 210.504 55.8381L208.615 55.4616C207.55 55.2486 206.757 54.8793 206.236 54.3537C205.72 53.8281 205.462 53.1581 205.462 52.3438C205.462 51.643 205.651 51.0393 206.03 50.5327C206.413 50.026 206.951 49.6354 207.642 49.3608C208.338 49.0862 209.153 48.9489 210.085 48.9489C211.463 48.9489 212.547 49.2401 213.338 49.8224C214.134 50.4048 214.598 51.1979 214.73 52.2017ZM221.013 60.2131C219.896 60.2131 218.934 59.9763 218.129 59.5028C217.329 59.0246 216.714 58.3617 216.283 57.5142C215.857 56.6667 215.644 55.6913 215.644 54.5881C215.644 53.4706 215.859 52.4905 216.29 51.6477C216.726 50.8002 217.343 50.1397 218.144 49.6662C218.944 49.188 219.896 48.9489 220.999 48.9489C221.95 48.9489 222.784 49.1217 223.499 49.4673C224.214 49.813 224.779 50.2983 225.196 50.9233C225.613 51.5483 225.842 52.2822 225.885 53.125H223.03C222.949 52.5805 222.736 52.1425 222.391 51.8111C222.05 51.4749 221.602 51.3068 221.048 51.3068C220.58 51.3068 220.17 51.4347 219.82 51.6903C219.474 51.9413 219.204 52.3082 219.01 52.7912C218.816 53.2741 218.719 53.8589 218.719 54.5455C218.719 55.2415 218.814 55.8333 219.003 56.321C219.197 56.8087 219.469 57.1804 219.82 57.4361C220.17 57.6918 220.58 57.8196 221.048 57.8196C221.394 57.8196 221.704 57.7486 221.979 57.6065C222.258 57.4645 222.488 57.2585 222.668 56.9886C222.852 56.714 222.973 56.3849 223.03 56.0014H225.885C225.838 56.8348 225.61 57.5687 225.203 58.2031C224.801 58.8329 224.244 59.3253 223.534 59.6804C222.824 60.0355 221.984 60.2131 221.013 60.2131ZM227.022 60V49.0909H229.955V50.9943H230.069C230.268 50.3172 230.602 49.8059 231.071 49.4602C231.539 49.1098 232.079 48.9347 232.69 48.9347C232.841 48.9347 233.005 48.9441 233.18 48.9631C233.355 48.982 233.509 49.008 233.642 49.0412V51.7259C233.5 51.6832 233.303 51.6454 233.052 51.6122C232.801 51.5791 232.571 51.5625 232.363 51.5625C231.918 51.5625 231.52 51.6596 231.17 51.8537C230.824 52.0431 230.55 52.3082 230.346 52.6491C230.147 52.9901 230.048 53.383 230.048 53.8281V60H227.022ZM238.827 60.2131C237.724 60.2131 236.77 59.9787 235.965 59.5099C235.165 59.0365 234.547 58.3783 234.111 57.5355C233.675 56.688 233.458 55.7055 233.458 54.5881C233.458 53.4612 233.675 52.4763 234.111 51.6335C234.547 50.786 235.165 50.1278 235.965 49.6591C236.77 49.1856 237.724 48.9489 238.827 48.9489C239.93 48.9489 240.882 49.1856 241.682 49.6591C242.487 50.1278 243.107 50.786 243.543 51.6335C243.979 52.4763 244.196 53.4612 244.196 54.5881C244.196 55.7055 243.979 56.688 243.543 57.5355C243.107 58.3783 242.487 59.0365 241.682 59.5099C240.882 59.9787 239.93 60.2131 238.827 60.2131ZM238.841 57.8693C239.343 57.8693 239.762 57.7273 240.098 57.4432C240.434 57.1544 240.688 56.7614 240.858 56.2642C241.033 55.767 241.121 55.2012 241.121 54.5668C241.121 53.9323 241.033 53.3665 240.858 52.8693C240.688 52.3722 240.434 51.9792 240.098 51.6903C239.762 51.4015 239.343 51.2571 238.841 51.2571C238.335 51.2571 237.908 51.4015 237.563 51.6903C237.222 51.9792 236.964 52.3722 236.789 52.8693C236.618 53.3665 236.533 53.9323 236.533 54.5668C236.533 55.2012 236.618 55.767 236.789 56.2642C236.964 56.7614 237.222 57.1544 237.563 57.4432C237.908 57.7273 238.335 57.8693 238.841 57.8693ZM247.242 60L244.273 49.0909H247.335L249.025 56.4205H249.124L250.886 49.0909H253.89L255.68 56.3778H255.772L257.434 49.0909H260.488L257.526 60H254.323L252.448 53.1392H252.313L250.438 60H247.242ZM264.327 45.4545V60H261.302V45.4545H264.327ZM267.819 64.0909C267.436 64.0909 267.076 64.0601 266.739 63.9986C266.408 63.9418 266.133 63.8684 265.916 63.7784L266.597 61.5199C266.953 61.6288 267.272 61.688 267.556 61.6974C267.845 61.7069 268.094 61.6406 268.302 61.4986C268.515 61.3565 268.688 61.1151 268.82 60.7741L268.998 60.3125L265.085 49.0909H268.266L270.525 57.1023H270.639L272.918 49.0909H276.122L271.882 61.179C271.678 61.7661 271.401 62.2775 271.051 62.7131C270.705 63.1534 270.267 63.492 269.737 63.7287C269.206 63.9702 268.567 64.0909 267.819 64.0909Z" fill="#030518"/>
<path d="M228.409 41.5881C227.987 41.5881 227.623 41.4924 227.318 41.3011C227.015 41.108 226.782 40.8419 226.619 40.5028C226.456 40.1638 226.375 39.7756 226.375 39.3381C226.375 38.8949 226.458 38.5038 226.625 38.1648C226.792 37.8239 227.027 37.5578 227.33 37.3665C227.633 37.1752 227.99 37.0795 228.401 37.0795C228.732 37.0795 229.027 37.1411 229.287 37.2642C229.546 37.3854 229.756 37.5559 229.915 37.7756C230.076 37.9953 230.171 38.2519 230.202 38.5455H229.375C229.33 38.3409 229.225 38.1648 229.062 38.017C228.902 37.8693 228.686 37.7955 228.415 37.7955C228.178 37.7955 227.971 37.858 227.793 37.983C227.616 38.1061 227.479 38.2822 227.381 38.5114C227.282 38.7386 227.233 39.0076 227.233 39.3182C227.233 39.6364 227.281 39.911 227.378 40.142C227.474 40.3731 227.611 40.5521 227.787 40.679C227.965 40.8059 228.174 40.8693 228.415 40.8693C228.576 40.8693 228.722 40.84 228.852 40.7812C228.985 40.7206 229.096 40.6345 229.185 40.5227C229.276 40.411 229.339 40.2765 229.375 40.1193H230.202C230.171 40.4015 230.08 40.6534 229.926 40.875C229.773 41.0966 229.567 41.2708 229.31 41.3977C229.054 41.5246 228.754 41.5881 228.409 41.5881ZM230.79 41.5V37.1364H231.611V37.8295H231.657C231.736 37.5947 231.876 37.41 232.077 37.2756C232.28 37.1392 232.509 37.071 232.765 37.071C232.818 37.071 232.88 37.0729 232.952 37.0767C233.026 37.0805 233.084 37.0852 233.125 37.0909V37.9034C233.091 37.8939 233.031 37.8835 232.943 37.8722C232.856 37.8589 232.769 37.8523 232.682 37.8523C232.481 37.8523 232.302 37.8949 232.145 37.9801C231.99 38.0634 231.867 38.1799 231.776 38.3295C231.685 38.4773 231.64 38.6458 231.64 38.8352V41.5H230.79ZM234.21 43.1364C234.083 43.1364 233.968 43.1259 233.864 43.1051C233.759 43.0862 233.682 43.0653 233.631 43.0426L233.835 42.3466C233.99 42.3883 234.129 42.4063 234.25 42.4006C234.371 42.3949 234.478 42.3494 234.571 42.2642C234.666 42.179 234.749 42.0398 234.821 41.8466L234.926 41.5568L233.329 37.1364H234.239L235.344 40.5227H235.389L236.494 37.1364H237.406L235.608 42.0824C235.525 42.3097 235.418 42.5019 235.29 42.6591C235.161 42.8182 235.007 42.9375 234.829 43.017C234.651 43.0966 234.445 43.1364 234.21 43.1364ZM237.884 43.1364V37.1364H238.714V37.8438H238.785C238.834 37.7528 238.905 37.6477 238.998 37.5284C239.091 37.4091 239.22 37.3049 239.384 37.2159C239.549 37.125 239.767 37.0795 240.038 37.0795C240.39 37.0795 240.705 37.1686 240.981 37.3466C241.258 37.5246 241.474 37.7812 241.632 38.1165C241.791 38.4517 241.87 38.8551 241.87 39.3267C241.87 39.7983 241.792 40.2027 241.634 40.5398C241.477 40.875 241.261 41.1335 240.987 41.3153C240.712 41.4953 240.399 41.5852 240.046 41.5852C239.781 41.5852 239.564 41.5407 239.396 41.4517C239.229 41.3627 239.098 41.2585 239.004 41.1392C238.909 41.0199 238.836 40.9138 238.785 40.821H238.734V43.1364H237.884ZM238.717 39.3182C238.717 39.625 238.761 39.8939 238.85 40.125C238.939 40.3561 239.068 40.5369 239.237 40.6676C239.405 40.7964 239.612 40.8608 239.856 40.8608C240.11 40.8608 240.322 40.7936 240.492 40.6591C240.663 40.5227 240.792 40.3381 240.879 40.1051C240.968 39.8722 241.012 39.6098 241.012 39.3182C241.012 39.0303 240.969 38.7718 240.882 38.5426C240.796 38.3134 240.668 38.1326 240.495 38C240.325 37.8674 240.112 37.8011 239.856 37.8011C239.61 37.8011 239.402 37.8646 239.231 37.9915C239.062 38.1184 238.935 38.2955 238.848 38.5227C238.76 38.75 238.717 39.0152 238.717 39.3182ZM244.539 37.1364V37.8182H242.155V37.1364H244.539ZM242.795 36.0909H243.644V40.2188C243.644 40.3835 243.669 40.5076 243.718 40.5909C243.767 40.6723 243.831 40.7282 243.908 40.7585C243.988 40.7869 244.074 40.8011 244.167 40.8011C244.235 40.8011 244.295 40.7964 244.346 40.7869C244.397 40.7775 244.437 40.7699 244.465 40.7642L244.618 41.4659C244.569 41.4848 244.499 41.5038 244.408 41.5227C244.317 41.5436 244.204 41.5549 244.067 41.5568C243.844 41.5606 243.635 41.5208 243.442 41.4375C243.249 41.3542 243.093 41.2254 242.974 41.0511C242.854 40.8769 242.795 40.6581 242.795 40.3949V36.0909ZM246.95 41.5881C246.541 41.5881 246.184 41.4943 245.879 41.3068C245.574 41.1193 245.337 40.857 245.168 40.5199C245 40.1828 244.916 39.7888 244.916 39.3381C244.916 38.8854 245 38.4896 245.168 38.1506C245.337 37.8116 245.574 37.5483 245.879 37.3608C246.184 37.1733 246.541 37.0795 246.95 37.0795C247.359 37.0795 247.716 37.1733 248.021 37.3608C248.326 37.5483 248.562 37.8116 248.731 38.1506C248.9 38.4896 248.984 38.8854 248.984 39.3381C248.984 39.7888 248.9 40.1828 248.731 40.5199C248.562 40.857 248.326 41.1193 248.021 41.3068C247.716 41.4943 247.359 41.5881 246.95 41.5881ZM246.953 40.875C247.218 40.875 247.437 40.8049 247.612 40.6648C247.786 40.5246 247.915 40.3381 247.998 40.1051C248.083 39.8722 248.126 39.6155 248.126 39.3352C248.126 39.0568 248.083 38.8011 247.998 38.5682C247.915 38.3333 247.786 38.1449 247.612 38.0028C247.437 37.8608 247.218 37.7898 246.953 37.7898C246.686 37.7898 246.464 37.8608 246.288 38.0028C246.114 38.1449 245.984 38.3333 245.899 38.5682C245.815 38.8011 245.774 39.0568 245.774 39.3352C245.774 39.6155 245.815 39.8722 245.899 40.1051C245.984 40.3381 246.114 40.5246 246.288 40.6648C246.464 40.8049 246.686 40.875 246.953 40.875ZM253.29 41.5881C252.86 41.5881 252.49 41.4962 252.179 41.3125C251.87 41.1269 251.632 40.8665 251.463 40.5312C251.296 40.1941 251.213 39.7992 251.213 39.3466C251.213 38.8996 251.296 38.5057 251.463 38.1648C251.632 37.8239 251.867 37.5578 252.168 37.3665C252.471 37.1752 252.825 37.0795 253.23 37.0795C253.476 37.0795 253.715 37.1203 253.946 37.2017C254.177 37.2831 254.385 37.411 254.568 37.5852C254.752 37.7595 254.897 37.9858 255.003 38.2642C255.109 38.5407 255.162 38.8769 255.162 39.2727V39.5739H251.693V38.9375H254.33C254.33 38.714 254.284 38.5161 254.193 38.3438C254.102 38.1695 253.974 38.0322 253.81 37.9318C253.647 37.8314 253.456 37.7812 253.236 37.7812C252.997 37.7812 252.789 37.84 252.611 37.9574C252.435 38.0729 252.298 38.2244 252.202 38.4119C252.107 38.5975 252.06 38.7992 252.06 39.017V39.5142C252.06 39.8059 252.111 40.054 252.213 40.2585C252.317 40.4631 252.462 40.6193 252.648 40.7273C252.833 40.8333 253.05 40.8864 253.298 40.8864C253.459 40.8864 253.606 40.8636 253.739 40.8182C253.871 40.7708 253.986 40.7008 254.082 40.608C254.179 40.5152 254.253 40.4006 254.304 40.2642L255.108 40.4091C255.044 40.6458 254.928 40.8532 254.761 41.0312C254.597 41.2074 254.389 41.3447 254.139 41.4432C253.891 41.5398 253.608 41.5881 253.29 41.5881ZM259.054 38.2017L258.284 38.3381C258.252 38.2396 258.201 38.1458 258.131 38.0568C258.063 37.9678 257.97 37.8949 257.853 37.8381C257.735 37.7812 257.588 37.7528 257.412 37.7528C257.172 37.7528 256.971 37.8068 256.81 37.9148C256.649 38.0208 256.569 38.1581 256.569 38.3267C256.569 38.4725 256.623 38.59 256.73 38.679C256.838 38.768 257.013 38.8409 257.253 38.8977L257.946 39.0568C258.348 39.1496 258.647 39.2926 258.844 39.4858C259.041 39.679 259.14 39.9299 259.14 40.2386C259.14 40.5 259.064 40.733 258.912 40.9375C258.763 41.1402 258.553 41.2992 258.284 41.4148C258.017 41.5303 257.708 41.5881 257.355 41.5881C256.867 41.5881 256.468 41.4839 256.159 41.2756C255.851 41.0653 255.661 40.767 255.591 40.3807L256.412 40.2557C256.463 40.4697 256.569 40.6316 256.728 40.7415C256.887 40.8494 257.094 40.9034 257.35 40.9034C257.628 40.9034 257.851 40.8456 258.017 40.7301C258.184 40.6127 258.267 40.4697 258.267 40.3011C258.267 40.1648 258.216 40.0502 258.114 39.9574C258.014 39.8646 257.859 39.7945 257.651 39.7472L256.912 39.5852C256.505 39.4924 256.204 39.3447 256.009 39.142C255.816 38.9394 255.719 38.6828 255.719 38.3722C255.719 38.1146 255.791 37.8892 255.935 37.696C256.079 37.5028 256.278 37.3523 256.532 37.2443C256.785 37.1345 257.076 37.0795 257.404 37.0795C257.875 37.0795 258.247 37.1818 258.517 37.3864C258.788 37.589 258.967 37.8608 259.054 38.2017ZM261.592 41.5881C261.169 41.5881 260.806 41.4924 260.501 41.3011C260.198 41.108 259.965 40.8419 259.802 40.5028C259.639 40.1638 259.557 39.7756 259.557 39.3381C259.557 38.8949 259.641 38.5038 259.807 38.1648C259.974 37.8239 260.209 37.5578 260.512 37.3665C260.815 37.1752 261.172 37.0795 261.583 37.0795C261.915 37.0795 262.21 37.1411 262.469 37.2642C262.729 37.3854 262.938 37.5559 263.097 37.7756C263.258 37.9953 263.354 38.2519 263.384 38.5455H262.557C262.512 38.3409 262.408 38.1648 262.245 38.017C262.084 37.8693 261.868 37.7955 261.597 37.7955C261.361 37.7955 261.153 37.858 260.975 37.983C260.799 38.1061 260.662 38.2822 260.563 38.5114C260.465 38.7386 260.415 39.0076 260.415 39.3182C260.415 39.6364 260.464 39.911 260.56 40.142C260.657 40.3731 260.793 40.5521 260.969 40.679C261.147 40.8059 261.357 40.8693 261.597 40.8693C261.758 40.8693 261.904 40.84 262.035 40.7812C262.167 40.7206 262.278 40.6345 262.367 40.5227C262.458 40.411 262.522 40.2765 262.557 40.1193H263.384C263.354 40.4015 263.262 40.6534 263.109 40.875C262.955 41.0966 262.75 41.2708 262.492 41.3977C262.236 41.5246 261.936 41.5881 261.592 41.5881ZM263.973 41.5V37.1364H264.794V37.8295H264.839C264.919 37.5947 265.059 37.41 265.26 37.2756C265.462 37.1392 265.691 37.071 265.947 37.071C266 37.071 266.063 37.0729 266.135 37.0767C266.208 37.0805 266.266 37.0852 266.308 37.0909V37.9034C266.274 37.8939 266.213 37.8835 266.126 37.8722C266.039 37.8589 265.952 37.8523 265.865 37.8523C265.664 37.8523 265.485 37.8949 265.328 37.9801C265.172 38.0634 265.049 38.1799 264.958 38.3295C264.867 38.4773 264.822 38.6458 264.822 38.8352V41.5H263.973ZM268.405 41.5881C267.996 41.5881 267.639 41.4943 267.334 41.3068C267.029 41.1193 266.792 40.857 266.623 40.5199C266.455 40.1828 266.371 39.7888 266.371 39.3381C266.371 38.8854 266.455 38.4896 266.623 38.1506C266.792 37.8116 267.029 37.5483 267.334 37.3608C267.639 37.1733 267.996 37.0795 268.405 37.0795C268.814 37.0795 269.171 37.1733 269.476 37.3608C269.781 37.5483 270.017 37.8116 270.186 38.1506C270.355 38.4896 270.439 38.8854 270.439 39.3381C270.439 39.7888 270.355 40.1828 270.186 40.5199C270.017 40.857 269.781 41.1193 269.476 41.3068C269.171 41.4943 268.814 41.5881 268.405 41.5881ZM268.408 40.875C268.673 40.875 268.892 40.8049 269.067 40.6648C269.241 40.5246 269.37 40.3381 269.453 40.1051C269.538 39.8722 269.581 39.6155 269.581 39.3352C269.581 39.0568 269.538 38.8011 269.453 38.5682C269.37 38.3333 269.241 38.1449 269.067 38.0028C268.892 37.8608 268.673 37.7898 268.408 37.7898C268.141 37.7898 267.919 37.8608 267.743 38.0028C267.569 38.1449 267.439 38.3333 267.354 38.5682C267.27 38.8011 267.229 39.0568 267.229 39.3352C267.229 39.6155 267.27 39.8722 267.354 40.1051C267.439 40.3381 267.569 40.5246 267.743 40.6648C267.919 40.8049 268.141 40.875 268.408 40.875ZM271.88 41.5L270.596 37.1364H271.474L272.329 40.3409H272.372L273.23 37.1364H274.107L274.96 40.3267H275.002L275.852 37.1364H276.73L275.448 41.5H274.582L273.696 38.3494H273.63L272.744 41.5H271.88Z" fill="#686974"/>
</g>
<defs>
<filter id="filter0_di_8067_76429" x="0" y="0.5" width="311" height="104" filterUnits="userSpaceOnUse" color-interpolation-filters="sRGB">
<feFlood flood-opacity="0" result="BackgroundImageFix"/>
<feColorMatrix in="SourceAlpha" type="matrix" values="0 0 0 0 0 0 0 0 0 0 0 0 0 0 0 0 0 0 127 0" result="hardAlpha"/>
<feMorphology radius="4" operator="dilate" in="SourceAlpha" result="effect1_dropShadow_8067_76429"/>
<feOffset/>
<feGaussianBlur stdDeviation="9"/>
<feComposite in2="hardAlpha" operator="out"/>
<feColorMatrix type="matrix" values="0 0 0 0 0.0117647 0 0 0 0 0.0196078 0 0 0 0 0.0941176 0 0 0 0.12 0"/>
<feBlend mode="normal" in2="BackgroundImageFix" result="effect1_dropShadow_8067_76429"/>
<feBlend mode="normal" in="SourceGraphic" in2="effect1_dropShadow_8067_76429" result="shape"/>
<feColorMatrix in="SourceAlpha" type="matrix" values="0 0 0 0 0 0 0 0 0 0 0 0 0 0 0 0 0 0 127 0" result="hardAlpha"/>
<feOffset dx="2" dy="4"/>
<feGaussianBlur stdDeviation="2"/>
<feComposite in2="hardAlpha" operator="arithmetic" k2="-1" k3="1"/>
<feColorMatrix type="matrix" values="0 0 0 0 0.0980392 0 0 0 0 0.270588 0 0 0 0 0.623529 0 0 0 0.12 0"/>
<feBlend mode="normal" in2="shape" result="effect2_innerShadow_8067_76429"/>
</filter>
</defs>
</svg>
