<svg width="20" height="20" viewBox="0 0 20 20" fill="none" xmlns="http://www.w3.org/2000/svg">
<mask id="mask0_7431_7702" style="mask-type:alpha" maskUnits="userSpaceOnUse" x="0" y="0" width="20" height="20">
<circle cx="10" cy="10" r="10" fill="#D9D9D9"/>
</mask>
<g mask="url(#mask0_7431_7702)">
<path d="M20.7697 0H-0.76878C-0.926729 0 -1.0816 0.0115385 -1.2334 0.0346154L-1.23647 1.38385L-3.33647 1.38077C-3.66877 1.88403 -3.84585 2.47385 -3.8457 3.07692V16.9231C-3.8457 17.7391 -3.52153 18.5218 -2.94449 19.0988C-2.36746 19.6758 -1.58483 20 -0.76878 20H20.7697C21.5857 20 22.3684 19.6758 22.9454 19.0988C23.5224 18.5218 23.8466 17.7391 23.8466 16.9231V3.07692C23.8466 2.26087 23.5224 1.47824 22.9454 0.90121C22.3684 0.324175 21.5857 0 20.7697 0Z" fill="#00247D"/>
<path d="M3.08008 16.1711L2.14008 17.0395L2.23316 15.7626L0.967773 15.5695L2.02393 14.8465L1.38623 13.7365L2.61008 14.1118L3.08008 12.9203L3.55085 14.1118L4.7747 13.7365L4.13623 14.8465L5.19316 15.5695L3.92777 15.7626L4.02085 17.0395L3.08008 16.1711ZM17.657 3.50876L17.0424 4.07645L17.1032 3.24107L16.2747 3.11491L16.9662 2.64184L16.5493 1.91568L17.3493 2.16107L17.657 1.38184L17.9655 2.16107L18.7662 1.91568L18.3485 2.64184L19.0393 3.11491L18.2116 3.24107L18.2724 4.07645L17.657 3.50876ZM14.5801 8.12414L13.9655 8.69261L14.0262 7.85722L13.1978 7.73107L13.8893 7.25722L13.4724 6.53107L14.2724 6.77645L14.5801 5.99722L14.8885 6.77645L15.6893 6.53107L15.2716 7.25722L15.9624 7.73107L15.1347 7.85722L15.1955 8.69261L14.5801 8.12414ZM21.5032 6.58568L20.8885 7.15414L20.9493 6.31876L20.1209 6.19261L20.8124 5.71876L20.3955 4.99261L21.1955 5.23799L21.5032 4.45876L21.8116 5.23799L22.6124 4.99261L22.1947 5.71876L22.8855 6.19261L22.0578 6.31876L22.1185 7.15414L21.5032 6.58568ZM17.657 17.3549L17.0424 17.9234L17.1032 17.088L16.2747 16.9618L16.9662 16.488L16.5493 15.7618L17.3493 16.0072L17.657 15.228L17.9655 16.0072L18.7662 15.7618L18.3485 16.488L19.0393 16.9618L18.2116 17.088L18.2724 17.9234L17.657 17.3549ZM20.0032 8.46107L20.2293 8.91953L20.7347 8.99261L20.3693 9.34876L20.4555 9.85261L20.0032 9.61491L19.5509 9.85261L19.637 9.34876L19.2716 8.99261L19.777 8.91953L20.0032 8.46107Z" fill="white"/>
<path d="M10.7697 10V0H-0.76878C-1.01493 0 -1.2334 0.0346154 -1.2334 0.0346154L-1.23647 1.38385L-3.33647 1.38077C-3.33647 1.38077 -3.36878 1.42615 -3.43416 1.53846C-3.70398 2.00628 -3.84591 2.53687 -3.8457 3.07692V10H10.7697Z" fill="#00247D"/>
<path d="M10.7697 0H8.97661L5.38507 2.51462V0H1.53891V1.97615L-1.2334 0.0346154C-1.69583 0.103638 -2.13603 0.278716 -2.51955 0.546154L1.09737 3.07692H-0.238011L-3.10186 1.07C-3.18654 1.16853 -3.26491 1.27233 -3.33647 1.38077L-0.912626 3.07692H-3.8457V6.92308H-0.857242L-3.8457 9.05077V10H-1.28263L1.53891 8.02462V10H5.38507V7.48538L8.97583 10H10.7697V8.43923L8.6043 6.92308H10.7697V3.07692H8.60507L10.7697 1.56077V0Z" fill="#EEEEEE"/>
<path d="M4.61584 0H2.30814V3.84615H-3.8457V6.15385H2.30814V10H4.61584V6.15385H10.7697V3.84615H4.61584V0Z" fill="#CF1B2B"/>
<path d="M10.7695 0H9.64567L5.3849 2.98385V3.07692H6.59337L10.7695 0.152308V0ZM-2.51971 0.546154C-2.73534 0.69525 -2.93102 0.871291 -3.10202 1.07L-0.238173 3.07692H1.09644L-2.51971 0.546154ZM1.10567 6.92308L-3.28125 10H-1.95279L1.53875 7.55538V6.92308H1.10567ZM10.7695 9.84769V8.90923L7.93336 6.92308H6.5926L10.7695 9.84769Z" fill="#CF1B2B"/>
</g>
</svg>
