<svg width="20" height="20" viewBox="0 0 20 20" fill="none" xmlns="http://www.w3.org/2000/svg">
<mask id="mask0_7431_7640" style="mask-type:alpha" maskUnits="userSpaceOnUse" x="0" y="0" width="20" height="20">
<circle cx="10" cy="10" r="10" fill="#D9D9D9"/>
</mask>
<g mask="url(#mask0_7431_7640)">
<path d="M-0.76878 0C-1.58483 0 -2.36746 0.324175 -2.94449 0.90121C-3.52153 1.47824 -3.8457 2.26087 -3.8457 3.07692L-3.8457 16.9231C-3.8457 17.7391 -3.52153 18.5218 -2.94449 19.0988C-2.36746 19.6758 -1.58483 20 -0.76878 20H3.8466V0H-0.76878ZM20.7697 0H16.1543V20H20.7697C21.5857 20 22.3684 19.6758 22.9454 19.0988C23.5224 18.5218 23.8466 17.7391 23.8466 16.9231V3.07692C23.8466 2.26087 23.5224 1.47824 22.9454 0.90121C22.3684 0.324175 21.5857 0 20.7697 0Z" fill="#D52B1E"/>
<path d="M3.84668 0H16.1544V20H3.84668V0Z" fill="#EEEEEE"/>
<path d="M10.4715 13.1642C11.3931 13.2711 12.2192 13.3673 13.14 13.4727L12.9054 12.7019C12.8881 12.6356 12.8905 12.5657 12.9122 12.5007C12.9339 12.4357 12.974 12.3784 13.0277 12.3357L15.7038 10.1557L15.15 9.89496C14.9061 9.80804 14.9731 9.67035 15.0615 9.33958L15.47 7.85035L13.9154 8.17881C13.7638 8.20188 13.6631 8.10573 13.64 8.01342L13.4392 7.31265L12.21 8.69265C12.0354 8.91419 11.6815 8.91419 11.7915 8.40342L12.3169 5.60804L11.6115 5.97342C11.4138 6.08419 11.2161 6.10265 11.1061 5.90496L10.1331 4.08496L9.15998 5.90496C9.04922 6.10265 8.85152 6.08419 8.65383 5.97342L7.94922 5.60804L8.4746 8.40342C8.58537 8.91419 8.23075 8.91419 8.05614 8.69265L6.82691 7.31342L6.62691 8.01419C6.60383 8.1065 6.50229 8.20265 6.35075 8.17958L4.79614 7.85111L5.2046 9.34035C5.29152 9.67111 5.35922 9.80881 5.11537 9.89573L4.56152 10.1565L7.23768 12.3365C7.34383 12.4188 7.39768 12.5673 7.35922 12.7027L7.1246 13.4734L9.79383 13.165C9.87537 13.165 9.92922 13.2103 9.92845 13.3042L9.76383 16.1534H10.4992L10.3354 13.3042C10.3369 13.2096 10.39 13.1642 10.4715 13.1642Z" fill="#D52B1E"/>
</g>
</svg>
