<svg width="20" height="20" viewBox="0 0 20 20" fill="none" xmlns="http://www.w3.org/2000/svg">
<mask id="mask0_7306_99525" style="mask-type:alpha" maskUnits="userSpaceOnUse" x="0" y="0" width="20" height="20">
<circle cx="10" cy="10" r="10" fill="#D9D9D9"/>
</mask>
<g mask="url(#mask0_7306_99525)">
<path d="M1.54499 0H26.7832C27.6353 0.00520833 28.3282 0.713542 28.3282 1.57812V18.4167C28.3282 19.2812 27.6353 19.9896 26.7832 19.9948L1.53986 20C0.692935 19.9896 0 19.2812 0 18.4219V1.57812C0 0.713542 0.692935 0.00520833 1.54499 0Z" fill="#DE2910"/>
<path d="M4.31085 2L6.05089 7.42708L1.49805 4.07292H7.12365L2.57081 7.42708L4.31085 2Z" fill="#FFDE00"/>
<path d="M9.62446 1.07812L9.46021 2.97396L8.49523 1.34375L10.2199 2.08854L8.39258 2.51562L9.62446 1.07812Z" fill="#FFDE00"/>
<path d="M11.9179 3.30216L11.0402 4.98446L10.7733 3.10425L12.0822 4.46883L10.2344 4.14071L11.9179 3.30216Z" fill="#FFDE00"/>
<path d="M12.1333 6.65625L10.6601 7.82812L11.1734 6L11.815 7.78646L10.2598 6.72396L12.1333 6.65625Z" fill="#FFDE00"/>
<path d="M9.58826 8.0625L9.501 9.96354L8.4693 8.375L10.2247 9.04688L8.41797 9.55208L9.58826 8.0625Z" fill="#FFDE00"/>
</g>
</svg>
